<svg version="1.1" id="Layer_1" xmlns="http://www.w3.org/2000/svg" xmlns:xlink="http://www.w3.org/1999/xlink" x="0px" y="0px"
	 width="100%" viewBox="0 0 1024 1024" enable-background="new 0 0 1024 1024" xml:space="preserve">
<path fill="#000000" opacity="1.000000" stroke="none" 
	d="
M806.844604,682.379395 
	C797.786072,679.061646 789.814087,674.179810 781.464600,670.067261 
	C767.124207,663.003784 752.982971,655.536621 738.654907,648.447510 
	C735.147583,646.712158 734.594360,645.030640 736.395203,641.533020 
	C741.575867,631.470947 741.436401,631.398987 751.623291,636.562317 
	C763.801697,642.735046 775.979980,648.908020 788.158325,655.080872 
	C788.320740,654.920776 788.483215,654.760681 788.645630,654.600586 
	C782.988159,648.602783 777.349976,642.586548 771.667847,636.612183 
	C765.584045,630.215515 759.545532,623.771606 753.307922,617.527466 
	C750.890564,615.107544 750.484131,612.914429 752.355530,610.078674 
	C753.357483,608.560425 754.114380,606.860962 754.833069,605.179688 
	C755.986816,602.480774 757.647522,601.741272 760.723083,602.217163 
	C775.502563,604.504089 790.328308,606.494995 805.148926,608.508362 
	C807.051025,608.766724 809.018555,608.543762 812.416016,608.543762 
	C803.128906,603.814026 795.023132,599.698364 786.929138,595.559570 
	C780.998901,592.527283 775.124634,589.382019 769.145020,586.451233 
	C766.309814,585.061584 765.580688,583.566467 767.281555,580.626526 
	C773.941589,569.114990 770.271729,569.503967 782.558899,575.639343 
	C802.075562,585.384705 821.397705,595.520020 840.927795,605.237732 
	C844.925598,607.226929 845.314575,609.012329 843.329346,612.854553 
	C835.630737,627.754883 835.770081,627.726990 818.732605,625.021179 
	C806.093750,623.013916 793.413940,621.262573 780.743530,619.459412 
	C778.832092,619.187378 776.872375,619.254395 774.802917,619.158447 
	C775.098389,621.722961 776.921326,622.818054 778.255920,624.197693 
	C790.068604,636.409607 801.852539,648.650940 813.815430,660.714661 
	C816.358276,663.278992 816.968811,665.495911 815.002502,668.545837 
	C812.138794,672.987732 810.924377,678.372864 806.844604,682.379395 
z"/>
<path fill="#000000" opacity="1.000000" stroke="none" 
	d="
M483.229736,793.000000 
	C483.213684,807.332092 483.229919,821.164368 483.165344,834.996277 
	C483.140411,840.336853 482.608093,840.677246 477.277313,839.481140 
	C466.479004,837.058228 466.566315,837.058777 466.630096,825.955811 
	C466.716125,810.970703 466.651428,795.984802 466.651428,780.512695 
	C464.602783,781.761230 464.001160,783.674561 463.150482,785.312439 
	C456.162872,798.765381 449.101654,812.182800 442.347137,825.752625 
	C440.377136,829.710266 438.295593,831.052124 433.803314,829.698242 
	C426.090332,827.373596 426.234589,827.644409 425.503479,819.802368 
	C424.140137,805.179138 425.315002,790.479858 423.945099,775.866882 
	C423.779541,774.101074 424.217712,772.248779 422.865112,769.821777 
	C420.977295,773.625549 419.268433,776.937195 417.674866,780.303284 
	C411.901428,792.498657 406.046692,804.658020 400.494019,816.953552 
	C398.925690,820.426331 396.892181,821.440674 393.500031,820.213318 
	C390.242279,819.034546 386.531952,819.390930 383.671600,817.460938 
	C382.807922,816.043396 383.555267,815.014954 384.046265,814.000793 
	C394.935181,791.510010 405.897736,769.054626 416.682526,746.514160 
	C418.307312,743.118347 420.063446,741.874817 423.981750,742.730957 
	C437.243927,745.628540 437.401978,745.475891 438.057739,759.520386 
	C438.661835,772.458801 438.955505,785.411682 439.406433,798.975952 
	C441.709076,797.545105 442.372742,795.687927 443.241821,794.013550 
	C449.612000,781.739868 456.062195,769.506226 462.271759,757.151733 
	C463.924744,753.862915 465.482727,752.452087 469.542450,753.494263 
	C485.849426,757.680542 482.966217,753.698181 483.224823,770.502075 
	C483.337646,777.833008 483.234711,785.167236 483.229736,793.000000 
z"/>
<path fill="#000000" opacity="1.000000" stroke="none" 
	d="
M619.291931,744.584595 
	C616.493591,735.611450 614.848938,736.713379 624.567200,733.437439 
	C625.513611,733.118408 626.506226,732.875854 627.380493,732.414185 
	C631.094971,730.452209 632.632324,732.081238 633.819458,735.651306 
	C640.855957,756.813232 648.108948,777.903015 655.190735,799.050049 
	C658.348572,808.479553 658.091370,808.150757 649.056152,811.957458 
	C642.903137,814.549927 638.543335,813.717896 633.436584,809.267761 
	C620.531494,798.021973 607.029480,787.461121 592.968628,775.973877 
	C593.136841,780.634766 594.848633,783.837708 595.934631,787.136902 
	C599.525513,798.044556 603.196411,808.929443 607.086853,819.733032 
	C608.548340,823.791809 608.174561,825.956787 603.529846,827.410522 
	C593.446655,830.566467 593.511292,830.823303 590.100037,820.841858 
	C582.993164,800.047241 576.037231,779.199402 568.700195,758.486389 
	C567.104492,753.981567 568.578491,752.797485 572.430847,750.891296 
	C580.335144,746.980225 585.972534,748.936279 592.274414,754.604187 
	C604.648193,765.733032 617.781128,776.017883 630.610352,786.639404 
	C631.227112,787.150146 631.942810,787.541321 633.792053,788.775330 
	C629.385864,773.181213 624.242859,759.117188 619.291931,744.584595 
z"/>
<path fill="#000000" opacity="1.000000" stroke="none" 
	d="
M233.088272,598.796997 
	C250.847137,593.874634 265.138367,599.819031 275.281250,616.537476 
	C280.373505,624.930969 284.815308,633.716736 289.706940,642.235657 
	C291.313782,645.034119 290.878754,646.590820 288.017700,648.160645 
	C266.557800,659.935547 245.146317,671.799194 223.771057,683.727112 
	C221.081375,685.228088 219.399399,685.302368 217.809509,682.250000 
	C213.041565,673.095947 207.716827,664.219299 203.226791,654.935791 
	C193.746002,635.333557 199.004745,617.898926 217.457764,606.306763 
	C222.267273,603.285400 227.306702,600.730164 233.088272,598.796997 
M235.245560,657.703613 
	C246.925415,651.189209 258.605255,644.674805 270.521667,638.028381 
	C268.814514,634.873657 267.489166,632.395874 266.137970,629.932190 
	C257.016876,613.301758 246.760620,610.269531 229.984161,619.268860 
	C228.524734,620.051758 227.122177,620.957520 225.760269,621.902832 
	C213.609222,630.337036 211.316208,639.702332 218.154617,652.850769 
	C223.865891,663.831909 223.865891,663.831909 235.245560,657.703613 
z"/>
<path fill="#000000" opacity="1.000000" stroke="none" 
	d="
M666.651794,766.914917 
	C666.471313,761.619141 668.464294,757.419800 671.027649,753.075317 
	C655.361450,750.864929 646.673645,738.296204 634.064026,730.482422 
	C638.220886,726.009949 642.725708,723.578735 647.125122,721.107727 
	C649.021606,720.042542 650.513672,721.895508 651.928040,722.987000 
	C657.856995,727.562927 663.660156,732.308289 669.697327,736.735535 
	C675.386292,740.907410 684.799133,739.044250 688.861145,733.315186 
	C690.179199,731.456116 689.005798,730.148743 688.130005,728.814392 
	C683.564575,721.858887 679.057556,714.859558 674.274475,708.055115 
	C672.283203,705.222290 672.452454,703.619202 675.433899,701.663513 
	C685.974487,694.749451 685.892334,694.676025 692.874329,705.099426 
	C704.730347,722.799133 716.528076,740.539246 728.568359,758.112915 
	C731.114136,761.828735 731.011963,763.819092 726.992920,766.284363 
	C717.779236,771.936035 709.136597,778.557129 699.745422,783.871643 
	C687.086548,791.035645 675.173584,787.098877 668.644775,774.507568 
	C667.477234,772.255859 666.729553,769.904541 666.651794,766.914917 
M682.194580,756.012024 
	C679.957581,760.751038 681.359741,764.761902 684.770142,768.281921 
	C687.059082,770.644409 689.723694,772.497803 693.199646,771.201050 
	C699.319214,768.918091 704.171021,764.688660 709.633667,760.939209 
	C706.197021,755.713989 703.145081,751.157288 700.188965,746.539246 
	C698.967102,744.630493 697.625122,744.091980 695.679932,745.481812 
	C691.228271,748.662415 686.119751,750.970215 682.194580,756.012024 
z"/>
<path fill="#000000" opacity="1.000000" stroke="none" 
	d="
M299.249115,314.248840 
	C305.044556,319.470337 310.575409,324.534424 316.270172,329.406921 
	C318.913696,331.668762 319.516479,333.339172 316.790863,336.249603 
	C308.782715,344.800812 308.925720,344.908783 300.032043,337.090454 
	C282.514008,321.690643 265.038727,306.241180 247.399506,290.981262 
	C244.261093,288.266174 243.619736,286.198029 247.006851,283.485168 
	C247.648941,282.970917 248.141388,282.268921 248.698334,281.649414 
	C253.802536,275.971741 253.802216,275.971466 260.254150,279.085358 
	C259.189606,272.714752 260.755066,267.087677 264.480560,262.112823 
	C271.406342,252.864517 281.738434,249.644394 292.347260,253.959595 
	C303.674805,258.567139 312.605225,266.241119 317.916504,277.386597 
	C324.669495,291.557404 316.008392,308.219849 300.610687,311.404388 
	C299.251190,311.685577 296.447083,311.285736 299.249115,314.248840 
M284.074951,269.307007 
	C273.331604,269.192810 266.598938,278.615997 271.158417,287.661713 
	C274.350220,293.993988 279.552460,298.433899 286.119781,301.001923 
	C291.931427,303.274506 296.961182,301.640015 300.799133,296.783936 
	C304.509369,292.089417 304.733215,287.342804 301.155884,282.031097 
	C297.137726,276.064911 291.765656,271.726349 284.074951,269.307007 
z"/>
<path fill="#000000" opacity="1.000000" stroke="none" 
	d="
M329.014679,735.005371 
	C319.075958,746.231201 309.302185,757.132019 299.727783,768.205200 
	C297.168365,771.165222 295.402679,771.216492 292.474091,768.575012 
	C284.046082,760.973267 283.957764,761.125244 291.489685,752.695923 
	C295.688599,747.996765 299.780090,743.201599 303.804016,738.582825 
	C303.180511,736.889343 302.019043,737.358154 301.128143,737.325806 
	C284.805786,736.732544 273.588013,721.278442 279.116821,705.880676 
	C284.123535,691.936829 293.338196,681.427002 308.304596,677.547546 
	C320.541534,674.375610 334.156738,683.543823 336.332703,695.956238 
	C336.559753,697.251404 336.558380,698.607849 337.795044,699.765381 
	C339.049316,698.806335 340.318512,697.835876 341.705231,696.775574 
	C345.170013,698.759888 347.813690,701.530273 350.732819,703.957336 
	C353.143097,705.961182 353.359467,707.630188 351.106262,710.099548 
	C343.706512,718.209045 336.521759,726.514709 329.014679,735.005371 
M295.751678,709.336060 
	C293.433197,716.025269 294.551788,720.487854 299.531769,724.417358 
	C304.165375,728.073486 309.466431,728.359375 314.820465,724.857483 
	C319.780212,721.613525 323.770966,717.328308 326.195099,711.871338 
	C328.933685,705.706482 327.271973,699.916016 321.974945,695.950195 
	C316.946167,692.185059 311.229828,692.438293 305.992004,696.887207 
	C302.045166,700.239746 298.444061,703.941895 295.751678,709.336060 
z"/>
<path fill="#000000" opacity="1.000000" stroke="none" 
	d="
M732.014832,699.014343 
	C735.273010,695.443665 738.292603,692.137024 741.755981,688.344299 
	C736.721313,683.622986 731.933350,679.133118 727.033752,674.538513 
	C723.045654,678.368042 719.262939,681.785156 715.731873,685.445068 
	C711.224365,690.116943 706.866516,694.937256 702.554199,699.791382 
	C700.782715,701.785461 699.251953,701.606018 697.496094,699.920105 
	C695.694458,698.190186 693.868347,696.483582 692.002502,694.823486 
	C690.141724,693.168030 690.035828,691.580688 691.781189,689.721985 
	C702.952148,677.825989 714.118042,665.924866 725.206909,653.952576 
	C727.464966,651.514587 728.902588,652.997498 730.572327,654.542725 
	C742.794067,665.853210 755.044556,677.132751 767.258301,688.451904 
	C772.999268,693.772278 778.606323,699.239563 784.423218,704.474487 
	C786.699158,706.522705 787.357544,708.025452 784.950928,710.562805 
	C774.408875,721.677612 763.973145,732.895203 753.630615,744.195984 
	C751.180908,746.872681 749.442444,747.077637 746.714294,744.453125 
	C738.285889,736.344910 739.061096,738.779541 746.077637,731.032959 
	C751.555054,724.985474 757.043274,718.945435 762.645691,713.014465 
	C764.712036,710.827087 764.681274,709.205139 762.373352,707.248657 
	C759.088562,704.464111 755.990479,701.459229 752.294250,698.073730 
	C746.653015,704.139587 741.263855,709.947876 735.859436,715.741943 
	C730.018555,722.003845 725.125977,721.314331 720.965881,713.771240 
	C719.865356,711.775818 721.006775,710.640808 722.146545,709.426453 
	C725.338013,706.026489 728.563904,702.658752 732.014832,699.014343 
z"/>
<path fill="#000000" opacity="1.000000" stroke="none" 
	d="
M713.465454,284.483948 
	C715.598206,287.092499 717.649475,289.273010 720.222412,290.889771 
	C724.056152,293.298798 727.715027,293.235321 731.231995,290.188416 
	C734.699463,287.184448 735.704773,283.582031 733.655884,279.456848 
	C731.956604,276.035400 729.985901,272.742920 728.028870,269.456726 
	C725.556335,265.304749 722.949646,261.230865 721.551147,256.543518 
	C718.726440,247.075821 721.191528,239.160095 728.537781,232.667557 
	C735.475952,226.535675 743.391602,225.011978 751.734985,228.863235 
	C764.477234,234.745026 773.151184,244.472305 776.849670,258.185120 
	C777.500793,260.599365 778.600342,264.270416 775.759888,265.440491 
	C771.886169,267.036163 767.456787,268.174561 763.146240,266.835022 
	C761.596985,266.353577 761.905212,264.310883 761.715637,262.831665 
	C760.718933,255.053513 756.689270,249.188416 750.156494,245.027222 
	C746.835205,242.911636 743.304199,242.183685 740.008057,245.052155 
	C736.746765,247.890305 736.572327,251.462830 738.554749,255.021530 
	C741.793030,260.834534 745.529053,266.379791 748.596863,272.276428 
	C756.859314,288.157715 749.254822,304.447845 731.854248,308.661041 
	C729.033691,309.343994 726.283813,309.354248 723.459045,308.729767 
	C706.866272,305.061371 691.894958,285.412109 692.597473,268.469421 
	C692.754456,264.684326 694.217224,262.906677 697.952637,262.949524 
	C698.451355,262.955261 698.951050,262.904144 699.449829,262.873230 
	C708.037964,262.341003 708.005310,262.342285 708.390503,270.783447 
	C708.616699,275.740265 710.273682,280.216400 713.465454,284.483948 
z"/>
<path fill="#000000" opacity="1.000000" stroke="none" 
	d="
M823.000061,460.928040 
	C836.818237,460.856598 850.138672,460.905609 863.453308,460.649475 
	C867.596252,460.569824 869.493225,461.572784 869.386475,466.171478 
	C869.095642,478.699310 870.753418,477.143158 858.587769,477.263031 
	C848.433350,477.363098 838.277344,477.301910 828.122192,477.336151 
	C826.509399,477.341583 824.897034,477.473785 822.307556,477.591949 
	C827.387634,482.942322 832.848145,486.339508 837.860657,490.245453 
	C845.643250,496.309906 847.239014,501.184509 844.397888,511.339478 
	C842.042114,512.087708 840.776001,510.158356 839.282837,509.045380 
	C832.877502,504.270905 826.459534,499.504181 820.240051,494.493805 
	C817.412476,492.215912 815.254883,492.190338 812.358948,494.436249 
	C804.733398,500.350220 796.898560,505.995544 789.109802,511.696960 
	C787.566101,512.827026 786.240051,514.586731 783.938171,514.106873 
	C780.582520,505.954895 782.386414,498.469299 789.001282,493.258911 
	C795.246460,488.339661 801.537903,483.479095 808.896240,477.745483 
	C801.884399,477.745483 796.195557,477.541138 790.527283,477.795868 
	C783.006592,478.133881 782.653503,477.985504 782.684326,470.423798 
	C782.724670,460.520935 781.786011,461.812408 791.557434,461.622559 
	C801.872253,461.422119 812.185913,461.163849 823.000061,460.928040 
z"/>
<path fill="#000000" opacity="1.000000" stroke="none" 
	d="
M351.744751,268.972839 
	C336.336121,276.247711 323.831421,273.179993 313.621460,259.827728 
	C307.027802,251.204773 302.514618,241.970428 305.738525,230.704269 
	C308.954742,219.464996 320.922546,209.240723 332.518494,208.005524 
	C341.681854,207.029449 348.513733,211.386032 354.126831,218.148895 
	C361.852966,227.457504 361.809296,227.404831 352.177582,234.204605 
	C345.654785,238.809555 339.226471,243.551147 332.824615,248.323822 
	C328.481171,251.561920 328.606445,252.997345 333.212372,255.895508 
	C341.134796,260.880402 353.524475,254.353012 354.732391,244.557861 
	C355.379028,239.314575 358.427948,237.702774 365.758972,238.780212 
	C370.708832,239.507706 369.386444,243.457138 369.064026,246.233612 
	C367.817871,256.964355 361.075836,263.781464 351.744751,268.972839 
M331.687256,222.392471 
	C321.194214,225.056076 316.872742,234.037277 322.976379,241.732895 
	C329.141785,237.219315 335.321777,232.695053 341.568207,228.122147 
	C338.983276,224.399933 336.208679,222.566025 331.687256,222.392471 
z"/>
<path fill="#000000" opacity="1.000000" stroke="none" 
	d="
M350.901917,722.013794 
	C354.338531,716.909973 359.725708,716.023438 364.693390,716.131226 
	C377.766083,716.414795 394.537628,726.492065 396.739258,742.654114 
	C398.413818,754.947205 389.338501,772.436096 377.583435,778.718018 
	C367.098419,784.321228 353.021973,781.925232 342.857849,772.807312 
	C332.316895,763.351318 331.988770,744.992004 342.082703,734.999939 
	C344.077881,733.025085 345.738617,734.127625 347.462799,735.052917 
	C356.559601,739.934631 365.624023,744.876648 374.710541,749.777649 
	C375.857910,750.396545 377.068481,750.898315 378.505402,751.574646 
	C381.461304,746.841370 381.519745,742.338257 378.690460,737.858032 
	C375.670074,733.075195 368.062103,729.610046 363.167328,730.629028 
	C355.737915,732.175537 355.728516,732.180481 352.304504,725.589539 
	C351.770142,724.560852 351.365814,723.464539 350.901917,722.013794 
M371.287964,760.802551 
	C364.985107,757.280518 358.682281,753.758484 352.261841,750.170776 
	C349.454742,754.313049 348.824493,758.124207 351.227783,761.789673 
	C354.049713,766.093628 358.308014,768.455566 363.508240,767.675110 
	C367.218109,767.118347 371.449646,766.472473 371.287964,760.802551 
z"/>
<path fill="#000000" opacity="1.000000" stroke="none" 
	d="
M218.564056,539.679138 
	C221.678940,550.934998 224.679947,561.811218 227.665756,572.632446 
	C233.529068,572.112915 237.829681,567.822693 238.548721,562.052734 
	C239.264572,556.308411 235.477768,548.598145 230.116714,546.275208 
	C226.665573,544.779785 226.303696,543.071899 227.325165,539.755615 
	C230.207214,530.398926 230.995056,529.865906 239.420990,534.979370 
	C250.300232,541.581787 252.980347,552.497620 252.575256,563.951416 
	C252.043884,578.975403 242.012741,588.478394 224.887863,591.919434 
	C202.480988,596.421875 183.959930,577.782654 188.577393,555.377319 
	C190.798996,544.597412 203.774719,534.726318 214.802933,535.320557 
	C217.488342,535.465271 217.951569,537.319946 218.564056,539.679138 
M214.045181,565.321228 
	C213.238922,562.264221 212.449982,559.202576 211.621231,556.151672 
	C210.884293,553.438660 209.393250,552.759827 206.785095,554.114380 
	C201.601425,556.806519 199.826797,562.706421 202.542282,568.770386 
	C205.208740,574.724854 210.453384,577.055969 216.439484,574.671692 
	C215.734741,571.847412 215.016357,568.968506 214.045181,565.321228 
z"/>
<path fill="#000000" opacity="1.000000" stroke="none" 
	d="
M229.107483,446.109833 
	C234.319763,438.448517 234.361725,431.611206 229.170151,424.749329 
	C227.632187,422.716614 227.896637,421.366882 229.293396,419.498596 
	C235.411713,411.314728 238.797897,411.334106 243.892273,420.232544 
	C250.066895,431.017883 248.034149,441.901154 242.771500,452.202881 
	C237.874878,461.788086 229.324677,466.100433 218.638474,466.324768 
	C209.400864,466.518677 200.659363,464.770050 193.258896,458.970001 
	C182.811234,450.781708 180.957947,439.739685 183.717407,427.493042 
	C185.986526,417.422546 191.550400,410.311249 202.173706,408.169800 
	C207.844254,407.026733 213.440842,407.886505 219.021317,408.998474 
	C223.130692,409.817291 222.549500,412.888275 222.125580,415.653809 
	C220.766739,424.518158 219.266449,433.361115 217.778244,442.205170 
	C217.393921,444.489136 216.948090,446.752533 217.331146,449.434021 
	C221.702545,450.304230 225.471573,449.179047 229.107483,446.109833 
M197.446716,441.910278 
	C198.739777,443.679474 200.340317,445.089111 202.310715,446.064880 
	C204.063965,446.933136 205.832031,446.937286 206.237045,444.751099 
	C207.517899,437.837341 208.894104,430.915985 209.228622,423.900116 
	C198.193832,422.319489 192.871063,430.324310 197.446716,441.910278 
z"/>
<path fill="#000000" opacity="1.000000" stroke="none" 
	d="
M275.816406,356.580750 
	C269.790497,368.148590 261.552856,376.180023 247.940643,375.201019 
	C233.928207,374.193237 222.654755,367.636292 216.233078,354.979065 
	C210.166183,343.021149 214.249802,331.960815 221.999298,322.109467 
	C229.313171,312.811890 239.117874,309.609772 250.436279,312.619324 
	C264.537872,316.368927 275.708130,323.671112 278.808685,339.321655 
	C279.996643,345.317841 278.199371,350.813110 275.816406,356.580750 
M238.075394,354.493347 
	C240.964554,355.768097 243.759735,357.357391 246.761780,358.254272 
	C253.738785,360.338684 259.234009,357.982422 262.383759,351.949280 
	C265.497162,345.985779 264.283264,339.992462 258.801758,335.430328 
	C254.402527,331.768951 249.489838,329.033630 243.750076,327.989746 
	C238.603638,327.053772 234.153244,328.896179 231.285217,333.270752 
	C226.103165,341.174835 228.038147,347.718506 238.075394,354.493347 
z"/>
<path fill="#000000" opacity="1.000000" stroke="none" 
	d="
M548.078674,149.157654 
	C539.492676,148.125000 531.333435,148.344315 522.463013,148.016815 
	C522.088318,154.028473 521.589050,159.917511 521.410706,165.816254 
	C521.324707,168.661331 523.737976,168.560730 525.766846,168.649582 
	C533.084534,168.969986 540.400391,169.494675 547.719788,169.547989 
	C551.728760,169.577194 553.397766,170.816330 553.283691,175.046005 
	C553.059082,183.377426 552.970398,183.618271 544.758179,183.394791 
	C538.264709,183.218094 531.750732,183.456818 525.297791,182.502136 
	C521.572327,181.950958 520.290405,183.500809 520.237000,187.198425 
	C520.124084,195.018753 519.515442,202.831055 519.341919,210.651794 
	C519.265991,214.074097 517.958801,215.390381 514.516479,215.256165 
	C500.239044,214.699432 501.686157,215.402573 502.486938,202.861481 
	C503.696289,183.921997 503.791687,164.912354 504.943237,145.967957 
	C505.898468,130.253006 503.461243,132.505508 519.587097,133.280945 
	C530.233154,133.792877 540.881470,134.264084 551.531067,134.696304 
	C557.971863,134.957687 558.212952,135.141388 558.103455,141.108795 
	C557.960876,148.876328 557.553955,149.347702 551.050293,149.251572 
	C550.217346,149.239243 549.384766,149.202133 548.078674,149.157654 
z"/>
<path fill="#000000" opacity="1.000000" stroke="none" 
	d="
M770.316040,401.449432 
	C766.105896,392.369232 766.114685,392.088806 770.684875,383.089996 
	C758.105042,378.763367 751.376709,367.518646 754.696167,356.368958 
	C758.249634,344.433197 774.202026,339.711273 783.534424,347.879425 
	C786.804077,350.741211 789.565796,354.061340 791.987305,357.693573 
	C793.736328,360.317017 795.675537,362.832184 797.717651,365.236145 
	C799.436768,367.259918 801.554199,368.510254 804.291809,366.875061 
	C806.855896,365.343567 807.304626,362.949219 806.673035,360.353699 
	C805.070740,353.769196 800.779297,349.331024 794.972595,346.163605 
	C792.863403,345.013062 790.078430,344.416107 792.018494,340.756622 
	C795.722717,333.769287 797.178406,332.598572 801.220642,334.354431 
	C812.801086,339.384583 822.062134,354.357941 821.307800,367.046051 
	C820.871826,374.380157 816.352844,378.840973 810.120239,381.742706 
	C802.273499,385.395966 794.333679,388.852631 786.392395,392.298004 
	C783.459167,393.570557 781.229553,394.948547 783.405945,398.572998 
	C783.850586,399.313507 783.897339,400.119141 783.425659,400.930847 
	C780.816895,405.420807 773.565674,405.896332 770.316040,401.449432 
M785.895630,367.489502 
	C784.269287,365.401550 782.851501,363.098083 780.968140,361.275787 
	C778.086609,358.487579 774.668640,358.451630 771.416992,360.695343 
	C768.020569,363.039001 767.627075,366.259033 769.174988,369.920929 
	C772.567627,377.946808 781.801453,379.184753 790.140442,372.493591 
	C788.868347,371.005341 787.599915,369.521271 785.895630,367.489502 
z"/>
<path fill="#000000" opacity="1.000000" stroke="none" 
	d="
M608.975342,229.960861 
	C603.754944,231.704086 599.255676,229.450165 595.102356,227.479416 
	C592.217163,226.110382 595.645813,222.615128 594.584229,219.637985 
	C588.074951,225.081299 580.813538,225.764999 573.098999,223.103333 
	C562.876892,219.576477 557.725952,211.398224 560.184570,200.888443 
	C563.362000,187.306091 566.674744,173.687317 571.176453,160.510330 
	C573.578979,153.478088 578.995850,160.278976 583.024353,160.204742 
	C585.906616,160.151627 587.713989,161.645630 586.583130,165.485336 
	C583.484680,176.005524 580.815491,186.653717 578.063965,197.273941 
	C575.909790,205.588333 577.097412,208.895645 582.733398,210.922974 
	C589.660095,213.414597 595.780945,210.996414 598.592224,203.911987 
	C602.582092,193.858032 604.932861,183.265472 607.585266,172.803528 
	C608.727905,168.296143 610.486816,167.372116 614.883484,168.756348 
	C625.505310,172.100433 625.562927,169.272369 622.146912,181.966415 
	C617.870056,197.859177 613.500977,213.727112 608.975342,229.960861 
z"/>
<path fill="#000000" opacity="1.000000" stroke="none" 
	d="
M777.694702,439.003906 
	C773.284180,423.020630 777.025574,411.059662 788.621582,403.342468 
	C801.529114,394.752472 818.434387,394.748840 829.385559,403.333801 
	C840.726013,412.223907 844.116699,433.815430 835.856628,444.540710 
	C832.189087,449.302795 830.771423,449.424469 826.412537,445.353424 
	C825.317810,444.330994 824.271851,443.248505 823.114197,442.303040 
	C820.771240,440.389587 820.111511,438.650208 822.716797,436.224884 
	C827.386353,431.877899 827.416748,426.513062 825.006531,421.087616 
	C822.713745,415.926331 818.265076,414.039978 812.834778,413.993530 
	C807.770569,413.950195 802.885437,414.796722 798.253418,416.859161 
	C792.639221,419.359009 790.113281,423.402771 790.285645,429.418823 
	C790.455933,435.360992 793.252319,439.918945 798.897400,441.509888 
	C803.506531,442.808807 803.530029,445.024414 802.287476,448.826202 
	C799.513611,457.312836 798.581055,457.811005 790.503113,454.040680 
	C784.068481,451.037354 780.050781,445.995087 777.694702,439.003906 
z"/>
<path fill="#000000" opacity="1.000000" stroke="none" 
	d="
M200.055511,493.112793 
	C194.400116,491.457367 189.173615,489.736053 183.845398,488.429535 
	C180.150574,487.523529 178.423157,485.615875 178.707687,481.779327 
	C178.963409,478.331268 178.171661,474.833191 178.962326,471.557343 
	C180.490616,470.448639 181.732269,471.281342 182.950424,471.660797 
	C200.906738,477.254150 218.821136,482.985962 236.831818,488.397583 
	C240.533661,489.509796 241.860306,491.458069 242.152969,495.063232 
	C243.240891,508.464417 243.337082,508.517639 231.233017,513.782349 
	C216.424957,520.223206 201.572037,526.561035 186.726654,532.915771 
	C185.392151,533.487000 184.071564,534.387634 182.284546,533.706726 
	C180.863373,529.463013 180.795059,524.997498 180.768402,520.513977 
	C180.752914,517.909607 182.661041,517.279358 184.530930,516.508545 
	C195.304504,512.067261 206.075806,507.620392 216.839279,503.154724 
	C218.504837,502.463654 220.383514,502.139404 222.231049,499.824158 
	C214.735016,497.553589 207.588013,495.388733 200.055511,493.112793 
z"/>
<path fill="#000000" opacity="1.000000" stroke="none" 
	d="
M791.080872,284.654297 
	C795.910400,287.360626 798.880737,291.514832 802.177063,295.634094 
	C799.253540,299.402374 794.789368,300.671600 791.614807,304.040955 
	C792.988586,308.110840 795.924377,311.349915 798.226318,314.906433 
	C799.973694,317.606201 799.936401,319.366882 796.974731,320.895874 
	C795.651184,321.579163 794.407715,322.461639 793.239868,323.393951 
	C790.447510,325.623260 788.570923,324.826660 786.843689,321.938507 
	C784.806091,318.531464 782.468933,315.303497 779.818420,311.334015 
	C771.339600,317.084961 762.922302,322.385437 754.999084,328.342957 
	C751.110962,331.266449 751.964844,336.185822 756.876160,339.603851 
	C760.375916,342.039459 759.985840,343.824432 757.764221,346.766846 
	C752.501831,353.736786 750.743713,353.936676 744.409790,347.561859 
	C732.755127,335.831940 734.006958,322.399597 747.661865,313.130646 
	C755.091675,308.087219 762.573730,303.120728 769.894897,298.211670 
	C770.295837,294.624176 765.805298,292.969818 766.888794,289.858948 
	C767.781250,287.296661 770.826599,286.425598 773.007385,284.950867 
	C775.774719,283.079529 775.841919,283.178864 782.121704,289.370972 
	C785.456604,288.737701 787.603333,285.766693 791.080872,284.654297 
z"/>
<path fill="#000000" opacity="1.000000" stroke="none" 
	d="
M769.736877,548.572876 
	C797.807617,537.124573 835.173706,548.695618 852.471375,568.042297 
	C858.726074,575.037842 859.093506,577.424927 854.630737,586.188660 
	C852.825562,586.857788 851.921753,585.424377 850.826599,584.493347 
	C826.213989,563.566956 798.118225,556.371094 766.495483,563.101990 
	C759.671509,564.554565 759.672668,564.288208 760.787476,557.705566 
	C761.678040,552.447510 764.628174,549.913452 769.736877,548.572876 
z"/>
<path fill="#000000" opacity="1.000000" stroke="none" 
	d="
M548.509644,825.390076 
	C534.208618,799.830688 532.240845,774.056458 545.103027,747.704712 
	C547.753479,742.274475 552.123535,740.162964 558.037842,740.858093 
	C561.707153,741.289368 560.706482,743.440063 559.903564,745.544006 
	C556.499573,754.464172 554.270508,763.618774 553.959595,773.217712 
	C553.280640,794.178284 557.266479,813.889465 569.240540,831.523926 
	C570.172180,832.895996 571.066345,834.298157 571.884644,835.739319 
	C572.096802,836.112976 571.955811,836.687134 571.975464,837.133362 
	C564.104309,840.921753 560.240906,840.253296 555.052185,834.038086 
	C552.815430,831.358826 550.813232,828.483826 548.509644,825.390076 
z"/>
<path fill="#000000" opacity="1.000000" stroke="none" 
	d="
M668.466370,240.445312 
	C666.240295,244.063095 665.200928,247.164780 669.672913,249.464920 
	C671.357422,250.331314 671.122437,251.741348 670.622253,253.335709 
	C667.638916,262.843903 664.338318,263.934784 656.380554,257.943268 
	C648.449524,251.971848 647.062500,244.477219 652.569336,235.091064 
	C659.384766,223.474472 666.454773,212.007126 673.430176,200.484589 
	C677.735840,193.372101 682.166809,186.333145 686.345642,179.147247 
	C688.110291,176.112717 689.747498,175.237885 693.023010,177.314285 
	C705.093445,184.966095 703.688782,181.904312 697.013000,193.149521 
	C687.675659,208.878128 678.113037,224.472992 668.466370,240.445312 
z"/>
<path fill="#000000" opacity="1.000000" stroke="none" 
	d="
M648.653503,166.728149 
	C653.641541,156.893494 650.750122,156.261475 662.737122,161.578278 
	C667.226074,163.569290 667.593567,165.486908 665.540527,169.769150 
	C656.902954,187.785507 648.700073,206.009827 640.250122,224.116989 
	C638.391235,228.100433 637.023315,231.678726 642.617737,233.750412 
	C644.237427,234.350204 644.012695,235.672546 643.738647,237.102402 
	C641.834412,247.037842 638.299377,248.598618 629.637817,243.248810 
	C621.425415,238.176407 619.432495,230.712753 623.958557,220.674149 
	C630.871582,205.341095 637.972290,190.092682 644.989624,174.806595 
	C646.170654,172.234116 647.332458,169.652847 648.653503,166.728149 
z"/>
<path fill="#000000" opacity="1.000000" stroke="none" 
	d="
M246.035706,386.987244 
	C248.295227,381.807373 249.530685,381.570953 257.116516,383.765625 
	C261.460022,385.022308 260.539886,388.186249 259.906067,391.013580 
	C257.301910,402.630585 248.751099,407.845520 237.502701,404.214844 
	C216.447952,397.418915 195.520782,390.228485 174.511597,383.289795 
	C171.596939,382.327179 170.262772,381.009125 171.609741,377.867462 
	C173.104202,374.381775 173.592148,370.493561 175.977859,366.737610 
	C185.897491,369.945251 195.844315,373.092834 205.744354,376.381348 
	C216.795975,380.052368 227.793777,383.885223 238.841965,387.566742 
	C241.135696,388.331055 243.587784,389.635529 246.035706,386.987244 
z"/>
<path fill="#000000" opacity="1.000000" stroke="none" 
	d="
M367.345917,186.411682 
	C371.408875,186.160034 370.620178,190.304962 373.240326,191.905655 
	C374.234375,184.630859 378.091980,179.720840 385.043365,177.380798 
	C390.012970,175.707901 391.129547,176.213669 392.492310,181.225861 
	C392.797760,182.349319 392.926605,183.546005 393.390991,184.596634 
	C395.314331,188.947983 394.066742,190.979752 389.334991,192.354355 
	C381.532196,194.621140 378.958862,199.924911 381.220520,207.895996 
	C384.057556,217.894760 389.684723,226.693512 393.991028,236.055145 
	C396.085968,240.609467 395.107666,242.397247 390.832397,244.210602 
	C379.792236,248.893295 382.287903,249.561630 377.386017,239.381577 
	C370.666718,225.427246 364.170288,211.363419 357.275574,197.497055 
	C355.199921,193.322601 355.768066,191.122437 360.211334,189.680283 
	C362.567078,188.915665 364.742798,187.596329 367.345917,186.411682 
z"/>
<path fill="#000000" opacity="1.000000" stroke="none" 
	d="
M428.562195,182.627731 
	C427.638123,179.227417 429.651367,178.421173 431.896271,177.925949 
	C440.634766,175.998306 449.397217,174.177307 458.121826,172.189728 
	C460.814392,171.576324 462.024261,172.559158 462.846161,175.056839 
	C466.015900,184.689667 465.578278,185.601212 455.714172,187.834915 
	C449.092010,189.334488 442.418854,190.618973 435.826202,192.235046 
	C432.216614,193.119873 430.031281,192.514023 429.673889,188.385971 
	C429.517639,186.581146 428.982727,184.809113 428.562195,182.627731 
z"/>
</svg>